<?xml version="1.0" encoding="UTF-8"?><svg id="Layer_2" xmlns="http://www.w3.org/2000/svg" viewBox="0 0 395.7 299.5"><defs><style>.cls-1{fill:none;stroke:#fff;stroke-miterlimit:10;stroke-width:.71px;}</style></defs><g id="Layer_1-2"><path class="cls-1" d="M387.14,30.74c-9.58,16.96-27.95,36.03-43.94,47.16-3.95,2.75-9.38,5.05-13.77,7.55-26.86,15.34-61.96,30.96-81.62,55.53-.47.59-.42,1.7-.76,1.99s-1.37,0-1.56.19c-.58.59.22,9.34-4.36,8.48-.14,1.21,1.51.03,1.21,1.2-1.98-.29-.92,1.4-1.23,2.62-.13.51-1.09.4-1.2.85-1.45,6.31-.24,16.32,0,23.04.12,3.58.9,6.28-.17,10.21-.65,2.38-6.41,6.19-8.16,8.58-1.56,2.12-2.7,6.29-5.6,8.26-1.32.9-5.71,2.38-6.64,3.31-4.41,4.43-5.35,6.64-11.74,9.86-1.47.74-4.45,1.17-5.31,1.7-.5.31-.59,1.64-1.94,1.98-1.44.37-2.68-1.13-1.86-2.12.07-.08,1.34-.15,2.08-.64,2.44-1.59,4.36-4.62,7.63-4.91l-.6-1.17c1.11.11,7.12-4.16,7.31-4.6.59-1.38-.75-.69-1.25-.64-4.67.42-1.98,1.1-2.98,1.89-.11.08-1.44.01-2.41.59-12.59,7.48-24.84,18.22-37.29,26.16-2.07,1.74-.1,3.72-.82,4.61-.51.63-3.32,1.47-4.4,2.65-1.93,2.11-2.4,6.02-4.46,8.05-.29.28-4.85,3.83-5.15,3.98-2.47,1.22-3.41-.6-2.18,3-.87-.56-3.68.23-4.13.78-.38.45,0,1.49-.13,1.66-.06.07-.99-.54-1.43-.45-.39.08-5.65,5.03-5.76,5.41-.14.46.75,1.48.5,1.74s-1.48-.96-2.79-.04c-.19.14-1.78,3.79-2.22,4.17-.6.52-2.64.37-3.56,1.06-.32.24,0,3.29-2.41,4.28-1.06.44-2.45-.57-3.64-.31-.24,1.09,1,.39,1.2.63.64.75-2.65,2.78-3.08,3.28-.81.94-1,2.19-1.37,2.59-.95,1-2.89,1.86-3.77,3.25-1.22.5-.59-1.73-1.81-1.21-.87.37-2.93,2.9-3.99,3.32-5.2,2.06-5.62,2.32-10.19,5.18-5.55,3.48-5.27,1.65-10.54,2.12-1.81.16-3.19,1.37-4.84,1.56.82-3.66-3.53.11-6.09-.61l2.43-3.04-4.87,1.82.6-3.65-3.04.6,1.21-1.21-7.31,1.21,1.52-2.44c-1.05-.08-2.79,1.4-3.64,1.22-2.29-.47,1.12-3.36.9-4.87-2.17.24-4.05.36-6.09,1.21l2.43-2.74-1.82-.3,1.22-1.82-4.26.6c-.08-1.17,1.47.01,1.24-1.5-.35-2.29-2.05-3.33-4.29-2.76l2.44-3.65-5.48.6c-.28-1.04,1.2-.26,1.24-.94.04-.78-1.09-2.14-.02-3.31-1.65-.96-2.33.56-3.33.64-.11,0-1.56-1.52-1.55-1.63.02-.47.82-1.26.61-1.45-.28-.25-5.32,1.41-4.27-1.83-4.36,2.23-1.2-2.44-1.82-3.04-.28-.27-2.6.79-1.85-1.53.18-.55,1.5.1,1.23-.9-5.38.99-3.08-1.92-3.65-2.45-.23-.22-2.01.33-2.4-.07-.36-.37.79-2.38-1.87-1.76-.35-.81,2.53-.62,1.21-1.82-.27-.25-1.83.83-2.43.6,1.75-4.02-2.5-.98-3.37-2.43-.38-.64.88-2.11.06-3.09-.37-.43-1.29-.35-1.68-.64-.52-.38-.55-.99-.6-1.01-.46-.18-1.45.72-1.72.47-1.1-1.03,3.06-2.04,1.82-3.04-.15-.13-1.25.21-1.67-.11-.58-.44-.4-2.04-.94-2.77-.43-.58-2.08-1-2.85-1.74-.58-.57-.47-1.55-1.05-2.12-.76-.74-2.8-.99-3.09-1.33-.46-.55-.87-4.36-2.22-5.4-1.31-1.01-3.82-.35-4.02-.55-.62-.62,1.61-4.03-2.43-3.06l2.44-3.03c-.6-.5-4.84,3.39-1.83-.61h-1.84c1.04-2.3.09-1.38-.55-2.34-.24-.36.05-1.19-.06-1.32-.16-.18-3.7,1.16-4.24.59-.11-.12.08-1.33-.18-1.92-.3-.7-1.07-1.21-1.08-2.02,0-.26,2.35-.43,1.23-1.53-.17-.17-1.32.73-2.06.65-.39-.04-.25-1.07-.84-1.25s-1.76.16-1.96-.03c-.21-.21.17-1.4-.04-1.95-.32-.82-1.72-.08-1.17-3.18.48-2.7-.07-2.97.02-3.61.12-.87,2.25-1.51,1.77-2.82l-1.21-.6c2.15.24.43-.91.61-2.44.22-.3,1.72,1.85,2.43,1.22,1.31-1.19-1.71-.96-1.21-2.12.54-1.26,3.35-1.4,2.35-2.69-.29-.37-2.46.48.09-2.49-1.29-.07-2.49.45-3.66.9-.85.33-3.17,2.8-3.04.62.85-.99,2.36-.54,1.75-2.09-3.72-.33,3.05-3.94,3.72-4.77,1.88-2.33-.04-3.39.05-4.05.11-.78,8.24-5.18,9.68-6.2,2.76-1.96,4.38-3.54,7.15-5.34,9.33-6.09,21.28-12.97,31.47-17.6.71-.32,1.48-.47,2.25-.49l-1.82-1.21c1.83-.5,5.09-.92,6.67-1.56,4.08-1.68,11.75-6.52,15.23-9.15.82-.62,5.75-4.67,6.12-4.85.97-.46,2.24-.04,2.93-.43.35-.19.7-1.75,1.62-2.34,18.32-11.86,38.82-24.87,58.07-35.49.4-.22.58-1.37,1.52-1.81,1.62-.76,3.63-.38,5.36-.44-.37,1.05-2.21.57-.9,2.44,7.45-2.8,15.03-.34,22.52.02,27.41,1.32,53.37-4.62,75.6-20.12,1.6-1.11,3.76-3.15,5.24-3.95.76-.41,2.2-.22,2.35-.38.26-.27-.21-1.6.16-2.26.19-.33,5.18-3.48,6.26-4.42,3.32-2.88,12.76-12.54,15.84-14.02,1.25-.6,3.05-.5,3.28-.69.15-.12.27-1.55.97-2.37.71-.84,8.61-8.22,9.15-8.53,1.19-.68,2.07-.69,3.39-.58-1.27-2.46,2.56-3.64,4.27-5.17,1.73-1.55,3.96-4.32,5.7-5.57,1.25-.91,4.65-2,5.68-2.86.79-.66,1.27-2.5,2.32-3.47,12.92-11.84,54.49-26.81,71.97-29.2,6.26-.86,9.27.93,9.44,7.61.15,6.09-5.16,17.19-8.2,22.57ZM279.97,61.54c-4.06.8-4.15,5.37-1.31,7.8,1.54-.67,6.38-2.89,6.38-4.54,0-1.14-4.02-3.46-5.06-3.26ZM164.54,147.13c-.74-.54-1.8-2.37-2.98-2.81-1.06-.39-1.22.83-.9,1.2.08.08,1.03.15,1.5.61,9.19,8.75,18.83,16.84,27.44,26.21,1.44-2.2,4.75-2.56,3.97-5.47l.61,1.84c8.59-.34,7.77-1.98,2.2-7.13-2.55-2.36-5.02-3.77-7.43-6.24-2.24-2.31-8.87-10.58-12.01-9.71-.88.24-1.76,1.74-3.48,2.13-.99.22-2.27-.35-2.37-.29-.19.11-.24,1.13-.66,1.42-1.85,1.24-4.38-.65-5.89-1.75ZM169.3,161.88c-.85-.59-3.15-4.74-4.97-5.6-1.42-.67-5.88-.8-4.88,2.05l1.82-.31c-.55,2.02-2.79,1.86-3.65,3.35,3.51.75,5.55,3.26.76,4.12-4.3.77-13.05-1.47-12.35,5.63,4.27,1.32,4.39-2.64,4.92-3.02.09-.06.8.6,1.06.42.21-.15-.04-1.05.42-1.07,3.88-.19-1.02,3.76-2.2,4.52s-2.93,1.19-4.16,1.95-.75,1.94-2.58,2.31c-2.5.5-8.35-6.48-10.57-8.14-.76,1.18,2,3.27,3.06,4.28.14.13,3.05,1.78,1.2,1.82-1.08.02-2.7-2.56-1.83,0l42.37,42.04c-1.29,2.3-4.21,1.48-.91,4.25l.31-1.22,1.82,1.22c-1.41-5.23.19-3.91,2.9-5.93,6.34-4.73,18.5-12.32,23.52-17.32.42-.42,1.25-.52,1.01-1.41-9.78-8.17-18.42-17.54-27.66-26.28-3.03-2.87-6.88-5.89-9.41-7.66ZM215.73,180.05c-1.43-1.4-8.38-8.77-9.65-8.94l-3.83,4.87c-1.25.96-7.74-.23-8.06.02-1.07.84.5,1.15.78,1.39.86.76,9.87,8.89,8.97,9.57-2.75.66-3.57-3.85-6.09-3.35,1.06,1.57,11.53,10.39,10.97,11.26-.08.13-2.11.18-1.83,1.53.2.91,3.34,2.66,2.92.75-1.14-5.24,2.24-3.04,3.59-5.45.14-.25-.47-.99-.41-1.04.08-.07,1.37-.11,2.13-.62,2.03-1.34,4.02-4.13,6.39-3.68-1.2-2.9-3.89-4.35-5.88-6.3ZM169.81,215.61c-1.05,1.11,5.45,4.31,1.39,5.41-1.84.5-2.66-2.14-3.82-3.3-5.61-5.56-13.66-15.1-19.51-19.49-.67-.51-2.92-2.22-3.67-1.51s2.46,3.96,3.01,4.58c5.5,6.14,11.9,11.45,17.1,17.66.79.94,4.28,3.65,3.65,4.56-.28.41-4.2,1.29-2.37,4.21,6.38.93,2.81-2.33,4.2-6.02,2.57.51,1.53,3.19,4.87,1.82.29-1.14-1.07-1.99-1.13-2.83-.09-1.21,2.67-2.57-.4-4.47-.78,2.72-1.72.23-3.34-.61Z"/></g></svg>