<?xml version="1.0" encoding="UTF-8"?><svg id="Layer_2" xmlns="http://www.w3.org/2000/svg" viewBox="0 0 315.52 529.75"><defs><style>.cls-1{fill:none;stroke:#fff;stroke-miterlimit:10;stroke-width:.71px;}</style></defs><g id="Layer_1-2"><path class="cls-1" d="M145.42,60.37l5.8,123.88c21-.55,42,.6,62.71,4.03,25.7,4.26,55.11,11.13,80.45,17.58,4.12,1.05,17.13,4.23,19.7,6.74,1.46,1.44,1.05,7.1.96,9.42-.31,7.51-1.4,13.51-7.17,18.66-2.6,68.82-5.87,137.59-9.11,206.36-3.36,5.59-8.7,5.08-14.04,2.7-6.23-2.77-3.3-5.83-3.21-10.93.48-25.71.46-51.79.65-77.43.17-24.63-.67-49.35.61-73.91l-8.36,12.6c-13.01,11.42-28.55,22.82-43.95,30.88-7.28,3.81-15.63,7.89-23.78,8.79-.16,3.75.19,7.56.02,11.31-2.55,57.32-1.35,115.04-4.49,172.3-3.93,5.98-8.57,7.3-15.33,4.91-1.53-.54-5.08-2.15-5.36-3.67-.39-20.22-.22-40.47-.62-60.68-.67-34.12-1.89-68.42-2.63-102.54-.18-8.13.17-16.3.05-24.44-12.54-6-22.86-15.01-33.55-23.66-.37.28-1.07,6.2-1.79,7.59-.59,1.14-1.67,1.23-2.11,1.91-2.45,3.8-5.4,32.81-6.59,39.7-.62,3.58-2.37,16.11-3.54,18.4-.89,1.76-8.27,3.79-10.34,3.86-3.8.12-9.87-3.9-9.78-7.81.1-4.09,2.29-11.27,2.99-15.76,3.45-22.06,6.77-44.14,9.87-66.26-.12-1.26-3.69-3.79-4.95-4.74-13.92-10.48-23.81-12.63-36.34.84-11.69,12.56-18.32,31.69-23.01,47.95-2.99,10.36-5.33,27.35-9.38,36.42-2.56,5.72-8.32,2.57-9.51,4.84-3.94,14.93-7.5,29.99-11.79,44.83-2.02,6.99-4.4,17.97-7.43,24.18-1,2.05-2.57,4.44-4.93,4.75-3.39.45-15.72.26-15.8-4.27,11.98-46.13,27.1-93.34,33.41-140.71,11.41-85.68-12.27-166.88-26.91-250.34.23-3.85-.88-9.34.51-12.87.71-1.79,2.41-2.41,2.93-3.52s.16-2.46.94-3.57c3.87-5.48,35.27-15.44,42.97-17.66C88.86,11.05,125.46,5.16,161.22.36c1.5.16,2.01,1.62,2.21,2.95,1.73,11.24-2.67,41.99-7.25,52.66-1.86,4.34-6.57,3.69-10.76,4.4ZM126,102.89l-1.88-38.01c-25.53,6.28-53.18,11.86-76.96,23.32-2.22,1.07-9.12,3.86-9.45,6.07l6.47,34.48c26.21-11.54,53.71-20.16,81.83-25.87ZM127.36,119.72c-.67-.65-15.96,3.43-18.21,4.04-21.17,5.76-42.15,13.13-61.65,23.16l10.22,71.52c18.75-19.02,46.78-25.26,71.93-31.58l-2.3-67.14ZM89.31,269.42c-.88.04-1.72,0-2.54-.37-9.76-4.28-19.06-8.66-27.12-15.77.56,18.83-1.35,37.53-3.87,56.13l5.92-11.16c5-8.67,13.22-19.28,21.47-24.97,1.93-1.33,5.03-1.37,6.13-3.86ZM271.14,266.85c-2.26-.76-2.29.78-3.09,1.2-16,8.44-31.35,17.82-48.32,24.43-4.01,1.56-8.29,2.63-12.32,4.13l-.73,30.88c10.19-3.08,19.63-8.15,28.8-13.44,10.44-6.01,33.33-19.4,36.03-31.7,1.16-5.29.63-10.27-.38-15.5ZM177.66,296.52l-25.51-7.08c-2.03.05-4.33,8.35-2.91,10.03,9.37,7.53,17.98,16.09,28.42,22.21v-25.16Z"/></g></svg>