<?xml version="1.0" encoding="UTF-8"?><svg id="Layer_2" xmlns="http://www.w3.org/2000/svg" viewBox="0 0 461.02 289.16"><defs><style>.cls-1{fill:none;stroke:#fff;stroke-miterlimit:10;stroke-width:.71px;}</style></defs><g id="Layer_1-2"><path class="cls-1" d="M373.01,75.79c3.1,1.13,5.59.09,8.58-.24,16.58-1.79,30.96-1.99,45.67,7.04,19.27,11.83,25.55,38.58,20.77,59.67-1.59,7.01-4.45,13.06-7.4,19.54.06.56,6.57,6.96,7.58,8.16,2.53,2.98,4.9,6.34,6.79,9.77,24.88,45.18-38.44,77.39-72.81,87.82-23.52,7.13-48.61,12.34-73.02,15.68-14.9,2.03-31.38,4.39-46.34,5.03-20.24.86-40.42.71-60.63-.3-48.02-2.4-100.49-10.21-144.62-29.96-39.23-17.56-81.97-53.94-39.82-95.47,16.87-16.62,36.66-23.74,57.88-32.78.82-.35,2.38-1.49,2.89-1.63.61-.16.75.52,1.69.35s2.39-1.05,3.43-1.38c2.63-.84,5.4-1.27,7.77-2.76-1.39-10.25-1.64-20.64-1.93-30.99-.27-9.64.56-18,.84-27.48.38-12.55-3.05-23,5.88-33.41,15.62-18.22,57.17-25.53,80.13-28.5,47.28-6.11,100.13-4.94,146.35,7.51,16.21,4.36,42.51,13.26,48.62,30.53,2.7,7.65,1.82,13.58,1.67,21.32-.08,4.16.07,8.33.02,12.49ZM133.7,27.54c1.01.28,5.04,0,6.46,0,.81,0,.18,1.49-.62,1.9-.99.52-1.98.19-2.95.42-1.85.43-4.11,1.97-6.11,2.31-.82.55.49,1.34,1.09,1.41s.96-.58,1.59-.7c2.92-.55,6.28,1.39,9.82.85.62-.1.54-.93,1.46-1.1s1.6.65,2.74.54,1.76-1.77,3.51-1.15c.12.69-.23,2.33.12,2.83.23.33,1.08.21,1.55.41.25.11.43.53.77.63,1.31.42,1.87-.67,2.79-.71.63-.03,1.02.5,1.78.36,2.06-.38,1.38-1.52,2.13-2.1.14-.11,3.16-1.07,3.42-1.11.65-.09.9.52,1.33.52s.82-.71,1.94-.56c.38.05,1.53.66,1.77.92.26.28.22.85.41.99.3.21,1.43,0,1.77.61.38.65.33,3.83.41,4.78,2.87.67,1.63-1.9,1.97-2.25.13-.13,3.23.38,3.73.24.74-.21.73-1.44,1.75-1.64.49-.1,2.29-.09,2.75.05.82.25,1.2,2.44,3.28,1.63l-.28-1.68c1.68-.1,2.92-.13,1.68,1.68,1.23.12,3.8.66,4.86.01.51-.31.3-1.73.62-2.25.29-.48,1.26-.41,1.68-.85.27-.28.49-1.76,1.26-1.12.13.11.55,2.22,1.29,3.07,1.1,1.26,3.28,1.24,4.05,2.12.45.52.13,1.42.54,1.71.27.19,4.57.21,5.23.14.99-.1,1.26-.48,2.07-.74.39-.13,1.32-.06,1.4-.14.12-.11-.08-1.63.77-1.91s3.65.94,5,.83c.16-.01,2.45-.91,2.65-1.02,1.28-.7-.04-4.4,1-4.62.77-.16,1.03,1.76.98,2.24,1.03.17.28-1.24,1.13-1.81.21-.14,1.57-.49,1.78-.45.39.06.27,1.11.52,1.36.49.49,2.04-.17,1.62,1.19-3.4-.3-1.52,1.52-1.69,3.65,1.11.29,2.51-.43,3.49-.28.68.1,1.07.88,1.99.86.75-.01,3.23-1.35,4.23-1.43.72-.05,1.37.66,2.5.58.23-.02,2.56-.91,2.67-1,.59-.43.14-2.71.28-3.51-1.29-.16-1.77,0-2.39,1.12-.89-1.24-.75-2.83-2.81-2.82-.98,0-1.63,1.21-2.18-.07-.67-1.54,1.33-2.17,1.78-2.91.25-.41.19-1.63.69-1.77.66-.18.93.57,1.47.77,1.46.53,2.98.42,4.29.76.6.16,1.8,1.23,2.1,1.21.21-.02.7-.76,1.19-.99.73-.33,2.3-.24,2.55-.4s.13-1.51,1.54-1.55c1.93-.05,1.04,2.73,1.31,3,.05.05,1.29.05,1.52.01.29-.05.23-1.56.5-1.92,1.16-.02,2.25-.94,3.23-1.12.88-.16,1.95.11,2.69-.12.7-.21.83-1.39,1.51-1.59,1.47-.43,3.69,1.06,4.72,1.11s1.81-.87,2.24-.87h4.63c.06,0-.04-.94,0-1.12,1.18.3,4.03.56,5.13.22.58-.17,2.64-1.94,3.48-2.13,1.66-.38,6.27.68,6.95-.91.2-.47.1-1.35.15-1.4.14-.15,2.84.21,3.64-.15,1.13-.5.77-2.01.85-2.1.16-.18,4.03.2,4.86-.05s1.09-2.03,1.86-2.32c.43-.16,1.79.36,2.64.08.7-.23.38-1.25,1.28-1.51,2.94-.84,5.28-.24,7.73-.7.7-.13,1.03-.82,1.98-.85,1.72-.06,4.12.82,5.88.88,1.2.04,2.21-.36,3.34-.27s2.99.6,3.82,1.38c-.63-1.1.57-1.53.58-2.11.01-1.25-1.78-.61-2.37-.71-2.65-.45-5.38-2.01-7.7-2.76-2.45-.8-4.24-.3-6.56-1.18-2.07-.78-2.56-.24-4.56-.55-.82-.13-1.43-.79-2.12-.97-2.92-.78-6.06-.79-8.83-1.28C264.9,1.13,236.78-.16,210.6,1.15c-5.97.3-12.53,1.19-17.95,1.47-11.13.57-23.37,2.41-33.97,4.7-3.38.73-6.64,1.06-10.08,1.71-4.15.79-8.16,2.86-12.11,3.33-2.28.27-7.78,2.82-10.45,3.87-4.72,1.85-10.59,4.02-14.76,6.86-.31.21-.4.67-.51.73-.53.29-1.84-.41-1.63,1.33.2,1.72,1.66-.11,2.24-.3,1.36-.43,3.78-.37,5.54-.92.85-.26,1.53-.95,2.26-1.11,2.31-.48,2.09.28,4.65-.96,3.84-1.87,2.9.71,4.6,1.15.73.19.89-.6,1.4-.76,1.66-.52,1.23.66,1.65,1.34.22.36.66.55.81.87.34.7.31,2.77,1.41,3.08ZM363.45,59.53c-.08-.09-2.09.9-2.23.99-5.47,3.79-11.8,7.15-17.65,9.64-6.38,2.72-12.4,4.57-18.92,6.28-.64.17-1.33.88-2.06,1.03-2.24.47-3.78.34-5.93,1.23-.98.4-4.9,1.29-6.18,1.58-3.26.74-7.68.86-11.13,1.69-.22.05-.18.56-.35.57-2.03.06-2.26.14-4.26.49-1.63.29-3.66,0-4.99,1.19-.22.09-.05-.54-.31-.58-.23-.04-4.02.51-4.72.61-42.93,5.57-90.28,4.44-131.66-4.52-1.75-.38-3.63-1.24-5.13-1.66-1.74-.49-2.74.39-4.64-.59-2.98-1.53-6.64-1.85-10.09-2.87-5.12-1.51-9.99-3.66-14.84-5.37-2.04-.72-4.63-1.91-6.7-2.85-.76-.35-1.29-1.64-2.82-.82,1.56,1.02,3.11,2.54,4.67,3.46,9.52,5.64,23.17,9.67,33.79,13.08,4.87,1.56,10.94,4.17,15.92,4.85,1.02.14,2.64-.13,3.8.13.97.22,1.39,1.34,2.36,1.57,3.18.75,6.54,1.11,9.74,1.77,1.04.22,2.23.35,3.1.55.4.09,2.59.75,2.78.87.79.48.25,1.47.72,1.8.65.45,2.48-.33,3.13.51.34.44.2,1.09.39,1.58.28.73,1,1.19.71,2.24,1.41.42.51-1.19,1.31-1.71,2.27-1.47,2.14,1.27,2.59,1.87.57.76,2.73.78,3.28,1.21.57.44.25,1.36.52,1.73.29.4,1.22.13,1.73.52.51.38.5,1.78,1.23,2.13,1.94.93,4.56-1.46,5.62-.29,1.05,1.16-1.57,3.54.58,4.76.38.22,1.81,1.12,1.92,1.16.93.3,2.09-.24,2.7.68.07.91-.3,2.4-.56,3.38-.53,1.98-.43,2.42-.73,4.32-.12.75-.78,1.34-.82,2-.08,1.19,1.15,2.29.02,3.88-.33.46-3.53-.15-3.92.49-.11.17-.11,1.99,0,2.17.57.92,6.4-.28,6.7.04.05.06-.05.84.06,1.2.44,1.35,2.09.96,2.18,1.05.06.06-.1.96.27,1.56.59.96,1.89.6,1.98.69s-.3,1.75,1.05,2.18c.35.11,1.14,0,1.2.06.09.09-.28,1.39.69,1.98.6.37,1.5.21,1.56.27.09.09-.28,1.39.69,1.98.6.37,1.5.21,1.56.27.05.05-.06.94.14,1.4.24.54,1.09.73,1.2.91.22.4-.11.96.46,1.65.8.96,2.54.36,2.69.53.08.09-.07,1.81.84,2.24-4.25-.98-4.54,5.42.14,4.49.65-.13.98-.91,1.37-.82.26.06.51.62.94.77.35.12,1.13,0,1.2.06.05.05-.06.94.14,1.4.24.54,1.1.73,1.2.91.3.53-.12,1.98,1.34,2.19,2.06.29,1.69-2.13,1.81-2.25.08-.08,2.17-.08,2.25,0,.2.21-.51,1.94,1.53,2.26,2.28.35,1.29-.63,2.1-1.57,1.51-1.74,2.21,1.51,2.45,1.57,1.65.4,2.8-.89,3.01-.84.29.07.51.69,1.16.82.59.11,3.11-.12,3.22,0,.09.1-.28,1.81,1.04,2.19.95.27,5.5-.15,5.69.06.11.12-.33,1.94,1.27,2.24.83.16,5.63.16,6.44,0,.65-.13.97-.91,1.37-.82.29.07.51.69,1.16.82s4.09.09,4.62-.14c1.13-.5.77-2.01.85-2.1.16-.18,2.87.3,3.81-.26s.59-1.88.68-1.98c.18-.2,4.58.16,5.47,0,1.6-.3,1.16-2.12,1.27-2.24.2-.22,4.88.3,5.89-.15,1.13-.5.77-2.01.85-2.1.09-.09,1.38.28,1.98-.69.37-.6.21-1.5.26-1.56.19-.2,4.59.17,5.47,0,.65-.13.97-.91,1.37-.82.51.12.71,1.32,2.13.68,1.08-.48.64-1.55.91-2.04.15-.27,1.14-.32,1.33-1.33.17-.89-.19-5.28,0-5.46.05-.05.93.06,1.4-.15,1.38-.6.7-3.11.85-4.34,1.24.3,4.69,1,4.49-.84,2.12,2.05,3.58.08,3.08-2.38-.12-.61-.66-.78-.78-1.18-.1-.32-.14-2.25-.06-2.33.06-.05.96.11,1.56-.26.97-.6.6-1.89.69-1.98.1-.1,1.94.33,2.24-1.27.1-.55.11-2.53,0-3.07-.11-.58-.72-.92-.93-1.59-.53-1.62.11-1.4.58-2.42.17-.37.17-1.23.41-1.42.3-.22,2.07-.24,2.17-.35.18-.18-.13-3.22.01-3.35.11-.1,1.72.33,2.18-1.05.14-.41.63-2.9.64-3.31.02-.91-.52-1.54-.53-2.23-.01-.87,1.37-5.38.07-5.75-.64-.18-.92.86-1.15-.51s.4-4.46.07-5.12c-.68-1.33-4.01.29-3.81-2.66.21-3.05,3.86-.3,4.51-.98.09-.1-.21-1.22.27-1.57s1.25.33,1.8.15c.4-.13.48-1.1,1.2-1.63.18-.13,1.88-1.08,2-1.11.54-.14.95.27,1.56-.07.9-.5.62-1.18.96-1.87.84-1.71,3.18-.36,3.43-.63.06-.06-.16-1.21.56-1.56.53-.25,1.5.5,3.18-.73,7.25-5.31,15.81-9.67,21.52-16.65,1.07-1.3,2.92-1.74,2.8-3.79ZM411.74,85.9c-.31-.21.06-1.48,0-1.81-.13-.78-2.62-1.49-3.45-1.91-1.06-.53-1.49-1.4-2.96-1.55-.99-.1-1.75.32-2.73.24-1.19-.1-2.44-.94-3.93-.89-2.39.09-5.8,1.02-8.42,1.15-3.72.19-7.16-.02-10.73-1.06-1.18-.25-.62-2.32-1.86-1.99-.86.23-.62,1.34-.9,1.91-.27.54-.73.93-.97,1.55-.67,1.71-.83,4.51-1.67,6.12-.21.41-.84.33-1.13.62-.48.46-.31,2.32-.21,3.03.09.58,1.58,5.57,1.77,5.81.31.38,1.52,1.47,1.92,1.41,1.33-.18,2.22-1.56,3.39-1.98,4.09-1.45,8.03-2.32,12.37-2.79,17.43-1.89,36.3,3.34,46.68,18.15.92,1.31,1.63,3.4,2.84,4.66.38.4.93.32,1.17.67.32.48-.08,1.85.04,2.69.17,1.2.92,2.39,1.26,3.51.08.27,1.13,5.62,2.04,4.55-.49-2.26-.08-4.58-.3-6.85-1.33-13.58-11.66-24.99-22.23-32.42-2.2-1.55-3.81-2.61-6.38-3.8-.62-.29-2.91-1.2-3.38-.87-.24.17-1.01,2.66-2.23,1.84ZM424.09,150.17c1.49.17,2.73-1.35,3.66-2.38,4.54-5.02,7.87-14.66,8.41-21.34,2.35-29.04-44.38-37.81-61.05-19.5-3.98,4.37-2.85,11.47-3.74,16.93l1.92,2.44c-.28.23-1.57-.9-1.95-.55-.07.06-.28,1.37-.85,1.67,12.56,3.07,25.18,8.01,36.87,13.51,4.86,2.29,9.66,5.27,14.59,7.31,1.48.61,2.53.04,2.16,1.92ZM426.82,173.95c1.7-1.71,3.54-4.87,5.25-6.95.86-1.05,2.57-1.59,1.13-3.63-.5.87-1.68,1.13-2.25,1.67-.48.45-.55,1.13-.99,1.54-.59.55-2.7,1.38-3.62,2-4.88,3.3-8.62,6.32-13.97,9.04-4.98,2.54-11.37,6.51-16.8,7.62-2.76.56-8.33,1.76-10.93,1.72-.64,0-4.77-.27-5.01-.35-.38-.13-1.25-1.69-2.7-2.07-1.09-.28-2.68.14-3.11-.01-.75-.27-1.87-1.94-2.67-2.09-.74-.13-2.75.21-3.6.31-1.01.13-1.04.21-2.28.25-1.53.05-3.19,2.93-4.65,3.77-2.89,1.66-5.83,2.11-8.27,4.92-3.57,4.11-10.86,13.44-12.14,18.46-.1.41,0,1.43-.06,1.48-.15.16-1.42-.34-1.4.28,4.72-.35,9.45-1.23,14.04-2.37,1.42-.35,5.51-1.25,6.5-1.84.35-.21.37-.57.65-.83.7,1.5,2.02-1.24,3.89-.86.2.04.01,1.04,1.28.13,2.9-2.1,6.13-2.46,9.51-3.68,18.84-6.85,33.93-13.06,49.11-26.46.59-.52,2.62-1.56,3.08-2.03ZM348.01,189.18c-.64-.11-.55.05-.7.55-.75,2.55-1.1,5.55-1.83,8.15,2.26-1.86,2.09-5.94,2.52-8.7ZM348.1,272.9c20.32-4.84,41.08-10.44,59.95-19.35,12.36-5.84,24.95-13.01,33.88-23.37.77-.89,4.14-3.77,4.06-4.66-.22-2.46-3.57,1.91-3.94,2.25-3.47,3.27-6.65,4.76-10.58,7.1-2.22,1.32-2.58,1.04-4.01,3.22-.93,1.42-9.56,6.08-11.51,7.08-28.36,14.55-62.71,22.64-93.89,27.64-.49.08-1.95,1.32-1.83,0,1.39-.3,3.08-1.95,4.22-2.38,2.28-.84,3.75-1.5,5.97-2.45.99-.43,5.14-1.72,5.69-2.17.32-.26.61-1.23,1.24-1.85,2.25-2.26,5.79-3.92,8.44-6.16,1.6-1.35,2-1.29,3.28-2.2.28-.2.31-.81,1-1.11.4-.18,1.14-.14,1.28-.26.11-.09.16-.83.36-1.18.63-1.07,2.91-.96,3.88-1.73.52-.41.59-1.36,1.43-1.94.62-.43,2.09-.68,2.45-1.06.38-.41.25-1.38,1.04-1.91.52-.35,1.27-.28,1.68-.56.47-.33.35-.92.49-1.05.11-.1,1.09-.17,1.77-.62,1.87-1.26,1.1-3.22,1.26-3.37.05-.05.92.06,1.4-.14,1.41-.61.63-2.77.85-3.92.12-.59,1.11-2.73,1.39-3.67.1-.34-.06-1.18.01-1.25.09-.09,2.07.28,2.23-.73.25-1.51-4.27-1.34-5.16-1.22-5.14.73-10.65.87-15.97,1.71-2.45.39-5.49.89-7.85,1.42-5.08,1.12-10.91,6.68-16.14,8.56-11.59,4.17-22.44,9.86-34.17,13.82-9.4,3.18-20.48,6.3-30.26,7.41-1.5.17-3.78.21-5.1.46-.62.12-.79.71-1.41.83-5.07,1-12.66.82-17.96,1.1-32.71,1.74-64.23-2.57-96.13-9.39-8.38-1.79-16.99-1.81-24.99-4.48-2.74-.91-1.55.06-2.52.57-1.85.97-.86-1.76-2.52-2.27-.7-.21-4.36-.3-4.66.13-.64.9.67,2.02.44,2.26-3.18.85.68,1.93,1.06,2.31.25.25.26,1.03.61,1.49s1.19.74,1.67,1.14c2.18,1.84,4.22,2.71,6.86,3.78,1.01.41,1.69,1.5,2.74,2.06,3.62,1.93,8.76,4.39,12.54,5.99,3.77,1.59,7.81,2.65,11.57,4.29.08.75,0,.45-.42.55-2.32.56-4.28-.41-6.49-.81-29.37-5.3-61.75-13.53-88.17-26.91-3.54-1.79-8.57-5.79-11.94-7.15-.66-.26-1.4-.1-1.9-.35-.38-.19-.42-.78-.63-.91-.32-.21-.98-.08-1.42-.34-.58-.34-1.16-2.21-2.72-1.7,0,1.59,1.42,1.51,2.23,2.11,6.26,4.66,11.32,8.61,18.29,12.31,13.16,6.99,28.27,12.9,42.3,17.21,20.42,6.27,41.73,10.08,62.83,13.52,50.42,6.95,101.55,7.16,151.76-.03,13.56-1.94,27.2-4.61,40.15-7.69ZM307.88,236.32c-1.78-.76-2.15,1.35-2.43,1.42-1.13.27-3.08-.25-4.39.05-.61.14-1.13.76-1.81,1-4.93,1.73-9.24,2.58-14.18,3.78-.78.19-1.5.83-2.39.98-1.01.17-2.14-.1-3.02.07-1.69.33-4.09,1.3-6.21,1.65-9.95,1.64-20.58,2.3-30.58,2.82-7.86.41-18.96,1.03-26.67.31-1.38-.13-1.78-1.11-2.79-1.16-1.26-.07-2.72.72-3.66.85-1.86.27-4.59-.03-6.38-.61-.44-.14-.59-.66-1.19-.78-.95-.19-5.69-.16-6.75-.02-.95.13-1.23.44-1.25,1.42-.74-.8-4.56-.8-5.21-.3-2.06,1.56,4.25,3.7,5.21,2.27-.06,1.48,1.31,2.24,2.52,2.67,4.61,1.64,9.67,2.2,14.4,3.29,9.03,2.07,16.72,3.36,25.89,3.3,4.72-.03,10.15.46,14.87,0,4.19-.41,8.93-1.58,13.19-2.24,11.21-1.74,23.69-7.15,33.65-12.67.5-.28.8-.82,1.39-1.14.86-.47,2.54-.62,2.94-.85.23-.13.91-1.64,1.31-1.92.44-.32,1.11-.14,1.31-.42.31-.42.19-1.73.25-1.79.2-.2,2.55.37,1.96-1.97Z"/><path class="cls-1" d="M217.42,118.81c1.68,1.59-1.67,2-1.78,2.16-.44.63.53,3.42-1.89,2.84-.12-.03-1.4-1.85-1.44-1.97-.26-.72.99-1.86-.03-3.08-.48-.58-1.54-.58-1.21-1.78.28-1.02,2.91-.94,3.69-.7,1.03.3.56,1.45.89,1.92.28.41,1.37.23,1.77.61Z"/><path class="cls-1" d="M203.73,97.43c-.84-.58-2.32,1.64-2.26-1.56.04-2.38.66-1.01,2.12-1.27.78-.14,1.02-.85,2.26-.86,2.34-.01,3.27.56,2.96,2.98-.2,1.56-1.31.73-2.55,1.09-.48.14-1.7,1.26-1.81,1.25-.7-.13-.57-1.55-.71-1.65Z"/></g></svg>