<?xml version="1.0" encoding="UTF-8"?><svg id="Layer_2" xmlns="http://www.w3.org/2000/svg" viewBox="0 0 664.18 567.11"><defs><style>.cls-1{fill:none;stroke:#fff;stroke-miterlimit:10;stroke-width:.71px;}</style></defs><g id="Layer_1-2"><path class="cls-1" d="M416.25,295.71c-.33.27-5.62,1.56-6.24,1.5-.28-.03-4.88-2.17-5.1-2.35-.54-.44-1.29-7.84-1.37-9.44-.9-16.59-.5-34.11-.68-50.71-.25-22.87.76-45.86-.65-68.65l-196.78,40.56-.31,355.64c-2.53.69-11.39,5.21-13.19,4.39-.42-.19-5.47-6.61-5.73-7.16-1.82-3.77-.78-10.86-1.06-15.17-7.02-108.15-13.4-216.35-18.96-324.49-.3-5.82.7-11.75-.79-17.46-29.09-19.78-57.95-39.95-87.15-59.58-4.39-2.95-10.19-7.4-14.62-9.72-.75-.4-1.19-1.06-2.23-.81l8.15,263.25c-12.35,4.89-14.84,4.78-16.26-8.72-1.72-16.32-2.03-33-3.4-49.34-6.75-80.86-14.1-161.72-18.96-242.69-.19-3.12.92-9.07-.96-11.21L1.54,64.65c-.05-5.1-4.25-14.14,3.45-14.8C136.33,33.89,267.53,16.39,399.17,2.45c6.87-.73,16.45-2.39,23.02-2.06,10.16.51,28.9,6.42,39.67,9.01,66.82,16.05,133.34,33.51,199.99,50.2,1.03.59,1.93,2.13,1.97,3.31.05,1.76-.42,6.79-.67,8.74-.12.97-.59,3.69-1.25,4.16l-31.32,5.19-1.22.81c-1.28,1.61-.44,10.13-.58,12.94-5.25,99.98-16.27,202.39-25.73,302.17-.21,2.27-.72,9.73-2.04,10.81-.57.47-7.39,2.46-8.28,2.28-.92-.18-7.66-5.02-7.79-5.72.09-1.11.55-2.15.56-3.28.2-39.42,2.18-78.91,3.36-118.34,1.53-50.9,3.66-101.88,5.45-152.79.04-1.03.18-2.8-.7-3.44l-170.45,35.86-6.91,133.38Z"/></g></svg>